<svg xmlns="http://www.w3.org/2000/svg" viewBox="0 0 174.78 49"><g id="Layer_2" data-name="Layer 2"><g id="Artwork"><path d="M19,25.14H11V22.67a4.71,4.71,0,0,0-.31-2.19,1.12,1.12,0,0,0-1-.47,1.29,1.29,0,0,0-1.17.63,3.67,3.67,0,0,0-.41,1.93,5.49,5.49,0,0,0,.45,2.51,6.52,6.52,0,0,0,2.45,2q5.76,3.42,7.26,5.62t1.5,7.08A12.49,12.49,0,0,1,18.91,45a6.53,6.53,0,0,1-3.21,2.82A12.72,12.72,0,0,1,10.16,49a12.44,12.44,0,0,1-5.92-1.31A6.4,6.4,0,0,1,1,44.34a17,17,0,0,1-.76-5.76V36.4h8v4a5.22,5.22,0,0,0,.34,2.4,1.29,1.29,0,0,0,1.2.54,1.41,1.41,0,0,0,1.28-.68,3.86,3.86,0,0,0,.42-2c0-2-.26-3.24-.8-3.84a25.13,25.13,0,0,0-4-3,41.34,41.34,0,0,1-4.27-3.1A7.27,7.27,0,0,1,.69,28.07,11.73,11.73,0,0,1,0,23.72a12,12,0,0,1,1-5.58,6.53,6.53,0,0,1,3.15-2.76,12.5,12.5,0,0,1,5.26-1,13.75,13.75,0,0,1,5.73,1.09,6,6,0,0,1,3.14,2.74A14.35,14.35,0,0,1,19,23.82Z" style="fill:#bec7ce"/><path d="M41,30.63V37.3a28.68,28.68,0,0,1-.37,5.39A7.57,7.57,0,0,1,39,45.89a7.22,7.22,0,0,1-3.11,2.2,12.5,12.5,0,0,1-4.36.7,15.7,15.7,0,0,1-4.66-.6,6.25,6.25,0,0,1-3-1.83,7.13,7.13,0,0,1-1.51-3,22.3,22.3,0,0,1-.45-5.2v-7a17,17,0,0,1,.82-5.93,6.8,6.8,0,0,1,2.95-3.43,10.41,10.41,0,0,1,5.46-1.29,12.52,12.52,0,0,1,4.79.83,7.65,7.65,0,0,1,3.09,2.17,7.52,7.52,0,0,1,1.49,2.75A17.36,17.36,0,0,1,41,30.63Zm-8.29-2.05A9,9,0,0,0,32.44,26a.92.92,0,0,0-1-.55,1,1,0,0,0-1,.55,8.49,8.49,0,0,0-.24,2.63V40.87a8.19,8.19,0,0,0,.24,2.52,1.13,1.13,0,0,0,1.94,0,6.86,6.86,0,0,0,.24-2.3Z" style="fill:#bec7ce"/><path d="M52.22,15.08V48.3H43.69V15.08Z" style="fill:#bec7ce"/><path d="M74.18,21.07V48.3H65.75L65.89,46a5.74,5.74,0,0,1-2.12,2.07,6,6,0,0,1-2.91.68,6.53,6.53,0,0,1-3.1-.65A4.26,4.26,0,0,1,56,46.39a6.44,6.44,0,0,1-.73-2.26c-.1-.79-.14-2.35-.14-4.69V21.07h8.29V39.6a19.6,19.6,0,0,0,.19,3.78c.13.39.48.59,1.06.59s1-.2,1.1-.61a24.63,24.63,0,0,0,.17-4V21.07Z" style="fill:#bec7ce"/><path d="M85.9,17.44v4.29h2.23V26H85.9V40.61a8,8,0,0,0,.27,3c.19.21,1,.31,2.31.31V48.3H85.14a24.79,24.79,0,0,1-4-.23A4.34,4.34,0,0,1,79,47,3.66,3.66,0,0,1,77.81,45a34.9,34.9,0,0,1-.22-5.16V26H75.8V21.73h1.79V17.44Z" style="fill:#bec7ce"/><path d="M98.5,15.08v4.33H90V15.08Zm0,6V48.3H90V21.07Z" style="fill:#bec7ce"/><path d="M120.23,30.63V37.3a28.68,28.68,0,0,1-.37,5.39,7.57,7.57,0,0,1-1.58,3.2,7.28,7.28,0,0,1-3.11,2.2,12.5,12.5,0,0,1-4.36.7,15.7,15.7,0,0,1-4.66-.6,6.25,6.25,0,0,1-3-1.83,7.13,7.13,0,0,1-1.51-3,22.3,22.3,0,0,1-.45-5.2v-7a17,17,0,0,1,.82-5.93,6.8,6.8,0,0,1,3-3.43,10.41,10.41,0,0,1,5.46-1.29,12.52,12.52,0,0,1,4.79.83,7.54,7.54,0,0,1,4.58,4.92A17.36,17.36,0,0,1,120.23,30.63Zm-8.29-2.05a9,9,0,0,0-.23-2.63.92.92,0,0,0-1-.55,1,1,0,0,0-1,.55,8.49,8.49,0,0,0-.24,2.63V40.87a8.19,8.19,0,0,0,.24,2.52,1.13,1.13,0,0,0,1.94,0,6.86,6.86,0,0,0,.24-2.3Z" style="fill:#bec7ce"/><path d="M131.39,21.07l-.14,2.51a6.18,6.18,0,0,1,2.2-2.25,5.92,5.92,0,0,1,3-.75,5.73,5.73,0,0,1,3.49,1,4.47,4.47,0,0,1,1.74,2.53,23.18,23.18,0,0,1,.39,5.1V48.3h-8.29V29.44a17.92,17.92,0,0,0-.18-3.42.94.94,0,0,0-1-.62,1,1,0,0,0-1.11.71,18,18,0,0,0-.22,3.79V48.3H123V21.07Z" style="fill:#bec7ce"/><path d="M161.86,29.77h-7.34V28.3a8,8,0,0,0-.22-2.4c-.14-.33-.5-.5-1.08-.5a1.24,1.24,0,0,0-1,.46,2.24,2.24,0,0,0-.35,1.39,7.39,7.39,0,0,0,.17,1.84,3,3,0,0,0,1.05,1.28,23,23,0,0,0,3.58,2c2.41,1.18,4,2.28,4.74,3.32a7.72,7.72,0,0,1,1.13,4.54,11.53,11.53,0,0,1-.86,5,5.79,5.79,0,0,1-2.89,2.6,11.73,11.73,0,0,1-4.87.91,13.38,13.38,0,0,1-5.41-1,5.94,5.94,0,0,1-3.08-2.67,11.69,11.69,0,0,1-.85-5.09V38.74h7.35v1.72a8.92,8.92,0,0,0,.28,2.86,1.07,1.07,0,0,0,1.09.65,1.5,1.5,0,0,0,1.24-.44,3.33,3.33,0,0,0,.34-1.86,4.14,4.14,0,0,0-.45-2.44,37.17,37.17,0,0,0-4.82-2.91c-2.43-1.37-3.92-2.61-4.45-3.73a9,9,0,0,1-.8-4,10.34,10.34,0,0,1,.86-4.81,5.6,5.6,0,0,1,2.92-2.39,12.7,12.7,0,0,1,4.8-.84,13.51,13.51,0,0,1,4.6.69,7.12,7.12,0,0,1,2.92,1.81,5,5,0,0,1,1.23,2.1,15.46,15.46,0,0,1,.21,3Z" style="fill:#bec7ce"/><path d="M174.33,16.92v3.39H163.39V17.47q4.86-7.95,5.78-9.84a7.51,7.51,0,0,0,.92-2.95,2.08,2.08,0,0,0-.28-1.21,1.06,1.06,0,0,0-1.69,0,3.79,3.79,0,0,0-.27,1.76v1.9h-4.46V6.44a16.32,16.32,0,0,1,.17-2.64,4.66,4.66,0,0,1,.85-1.9A4.23,4.23,0,0,1,166.17.48a6.39,6.39,0,0,1,2.6-.48,6.23,6.23,0,0,1,4.49,1.47,5,5,0,0,1,1.52,3.73,8.91,8.91,0,0,1-.86,3.62,74.7,74.7,0,0,1-5,8.1Z" style="fill:#f38025"/></g></g></svg>