<svg xmlns="http://www.w3.org/2000/svg" viewBox="0 0 56 64"><g id="Layer_2" data-name="Layer 2"><g id="Artwork"><polyline points="1 41 7 1 49 1 55 41" style="fill:none;stroke:#fff;stroke-miterlimit:10;stroke-width:2px"/><rect x="1" y="41" width="54" height="22" style="fill:none;stroke:#fff;stroke-miterlimit:10;stroke-width:2px"/><circle cx="44" cy="52" r="3" style="fill:none;stroke:#fff;stroke-miterlimit:10;stroke-width:2px"/><path d="M30.89,27H35a2.7,2.7,0,0,0,3-3,3.19,3.19,0,0,0-3-3c0-3.6-3.28-6-7-6-3.3,0-6.41,3-7,6h0a3.19,3.19,0,0,0-3,3,2.65,2.65,0,0,0,3,3H31.43" style="fill:none;stroke:#fff;stroke-miterlimit:10;stroke-width:2px"/></g></g></svg>