<svg xmlns="http://www.w3.org/2000/svg" viewBox="0 0 64.22 64.23"><g id="Layer_2" data-name="Layer 2"><g id="Artwork"><path d="M32.11,1A31.12,31.12,0,1,1,1,32.11,31.1,31.1,0,0,1,32.11,1Z" style="fill:none;stroke:#fff;stroke-miterlimit:10;stroke-width:2px"/><line x1="32.11" y1="1.11" x2="32.11" y2="63.11" style="fill:none;stroke:#fff;stroke-miterlimit:10;stroke-width:2px"/><line x1="63.11" y1="32.11" x2="1.11" y2="32.11" style="fill:none;stroke:#fff;stroke-miterlimit:10;stroke-width:2px"/><path d="M30.11,1.11a41.32,41.32,0,0,0,0,62" style="fill:none;stroke:#fff;stroke-miterlimit:10;stroke-width:2px"/><path d="M34.11,1.11a41.32,41.32,0,0,1,0,62" style="fill:none;stroke:#fff;stroke-miterlimit:10;stroke-width:2px"/><path d="M8.11,12.11s5,10,24,10,24-10,24-10" style="fill:none;stroke:#fff;stroke-miterlimit:10;stroke-width:2px"/><path d="M8.11,52.11s5-10,24-10,24,10,24,10" style="fill:none;stroke:#fff;stroke-miterlimit:10;stroke-width:2px"/></g></g></svg>